<svg width="1440" height="865" viewBox="0 0 1440 865" fill="none" xmlns="http://www.w3.org/2000/svg">
<path d="M184.189 55.7183C213.035 50.285 235.797 53.2634 252.473 64.6534C269.12 75.8874 279.896 94.5242 284.801 120.564C288.002 137.559 287.376 153.096 282.924 167.175C278.442 181.097 270.313 192.8 258.537 202.283C246.917 211.737 231.829 218.212 213.274 221.707C210.935 222.148 207.724 222.672 203.641 223.279C199.713 223.858 195.645 224.543 191.435 225.336C187.195 225.973 183.36 226.615 179.93 227.261C174.005 228.377 168.172 229.556 162.433 230.799C156.819 231.856 152.249 232.879 148.721 233.866L147.84 229.188C153.083 227.878 156.942 226.505 159.416 225.07C161.891 223.635 163.253 221.441 163.504 218.488C163.911 215.505 163.586 211.207 162.529 205.594L140.678 89.5855C139.591 83.8162 138.331 79.6944 136.896 77.2199C135.588 74.5601 133.442 73.0267 130.459 72.6198C127.603 72.0276 123.587 72.1381 118.412 72.9514L117.531 68.2737C121.147 67.7541 125.791 67.1216 131.463 66.3761C137.261 65.4454 142.953 64.3734 148.537 63.1602C154.12 61.947 160.328 60.6163 167.159 59.1681C174.147 57.6906 179.823 56.5407 184.189 55.7183ZM181.006 60.6772C173.833 62.0282 169.405 64.2346 167.722 67.2965C166.038 70.3584 165.96 75.9434 167.487 84.0515L189.514 200.995C191.041 209.103 193.146 214.277 195.828 216.517C198.666 218.727 203.672 219.156 210.844 217.805C226.592 214.839 238.26 209.493 245.846 201.767C253.403 193.886 257.859 183.682 259.213 171.156C260.567 158.63 259.644 143.87 256.443 126.874C253.153 109.41 248.488 95.3543 242.445 84.706C236.374 73.9018 228.366 66.53 218.421 62.5908C208.602 58.4662 196.131 57.8284 181.006 60.6772Z" fill="white"/>
<path d="M361.911 26.4066L362.548 31.1239C357.38 31.9813 353.534 33.1407 351.009 34.6021C348.464 35.9062 346.91 38.0371 346.348 40.9948C345.766 43.7952 345.867 48.1044 346.652 53.9223L362.438 170.91C363.202 176.571 364.246 180.753 365.572 183.456C366.897 186.159 368.96 187.802 371.76 188.384C374.561 188.967 378.577 189.066 383.808 188.68L384.445 193.397C380.628 193.592 375.811 194.082 369.993 194.867C364.311 195.473 358.483 196.18 352.508 196.986C345.904 197.877 339.703 198.794 333.906 199.736C328.246 200.5 323.628 201.283 320.054 202.086L319.418 197.369C324.721 196.333 328.646 195.163 331.192 193.859C333.738 192.554 335.213 190.434 335.617 187.498C336.179 184.54 336.077 180.231 335.314 174.57L319.528 57.5824C318.743 51.7644 317.698 47.5826 316.394 45.0368C315.226 42.3125 313.163 40.6696 310.205 40.1081C307.384 39.3681 303.368 39.2696 298.157 39.8125L297.521 35.0953C301.159 34.7645 305.819 34.2958 311.5 33.6892C317.34 33.0614 323.561 32.3019 330.165 31.4108C336.141 30.6045 341.948 29.7408 347.587 28.8198C353.384 27.8775 358.159 27.0731 361.911 26.4066Z" fill="white"/>
<path d="M439.519 15.4545C447.888 14.6305 454.376 14.9483 458.984 16.4079C463.592 17.8674 467.663 19.5393 471.196 21.4234C473.2 22.3422 474.786 23.063 475.953 23.5858C477.263 23.9351 478.471 24.0554 479.576 23.9466C481.155 23.7911 482.175 22.8138 482.635 21.0147C483.254 19.2 483.629 16.5324 483.761 13.0119L489.208 12.4756C489.33 15.3334 489.428 18.7516 489.5 22.7303C489.716 26.5355 490.055 31.604 490.519 37.9357C491.141 44.2518 491.957 52.5417 492.968 62.8054L487.52 63.3418C486.285 55.6511 483.809 48.3217 480.094 41.3536C476.536 34.3698 471.69 28.8682 465.555 24.8487C459.577 20.8136 452.246 19.2236 443.562 20.0786C435.508 20.8715 429.039 23.9797 424.152 29.4033C419.407 34.6534 417.424 41.226 418.201 49.1212C418.885 56.0689 421.197 61.7404 425.138 66.1354C429.062 70.3726 434.227 74.2486 440.631 77.7633C447.178 81.1046 454.561 84.8418 462.781 88.9751C471.173 93.2507 478.776 97.604 485.59 102.035C492.388 106.308 497.898 111.266 502.121 116.909C506.343 122.552 508.874 129.636 509.714 138.163C510.724 148.427 509.116 157.195 504.89 164.466C500.806 171.565 494.9 177.168 487.174 181.277C479.447 185.386 470.768 187.915 461.136 188.863C452.293 189.733 445.173 189.478 439.776 188.096C434.378 186.714 429.763 185.176 425.929 183.481C422.237 181.612 419.444 180.771 417.549 180.957C415.97 181.113 414.872 182.098 414.253 183.913C413.792 185.712 413.496 188.372 413.365 191.892L407.917 192.428C407.891 188.923 407.652 184.881 407.201 180.302C406.893 175.55 406.365 169.384 405.619 161.804C405.031 154.209 404.169 144.648 403.035 133.121L408.482 132.585C410.078 142.313 412.716 151.3 416.398 159.547C420.238 167.779 425.414 174.204 431.928 178.824C438.583 183.271 446.964 184.997 457.07 184.002C462.438 183.473 467.311 181.957 471.688 179.454C476.066 176.95 479.458 173.348 481.865 168.647C484.272 163.945 485.133 158.121 484.449 151.173C483.812 144.699 481.673 139.17 478.033 134.586C474.551 129.986 469.844 125.906 463.914 122.345C458.125 118.61 451.381 114.889 443.683 111.183C435.795 107.177 428.381 103.124 421.44 99.0239C414.5 94.9242 408.745 89.9107 404.175 83.9832C399.764 78.0402 397.131 70.7263 396.276 62.0416C395.327 52.4095 396.761 44.2967 400.576 37.7032C404.548 31.0941 409.94 25.9397 416.75 22.24C423.719 18.5247 431.308 16.2629 439.519 15.4545Z" fill="white"/>
<path d="M606.727 3.12954C617.186 2.61066 625.822 3.77085 632.635 6.6101C639.599 9.283 645.798 12.5499 651.232 16.4107C654.519 18.6305 656.912 18.8296 658.41 17.0077C660.059 15.0196 661.031 10.6027 661.327 3.75695L666.795 3.48572C666.776 9.52337 666.9 16.8249 667.166 25.3902C667.425 33.7971 667.904 45.0525 668.603 59.1565L663.136 59.4277C661.681 52.51 660.288 46.86 658.959 42.4779C657.788 38.0878 656.252 34.3513 654.352 31.2684C652.61 28.1775 650.238 25.1974 647.236 22.328C642.357 16.851 636.527 13.0098 629.746 10.8044C622.964 8.59907 615.849 7.68115 608.401 8.05065C600.319 8.4516 593.29 10.8655 587.314 15.2924C581.33 19.5608 576.384 25.5252 572.474 33.1856C568.724 40.8382 565.99 49.7906 564.275 60.0429C562.56 70.2952 562.001 81.4432 562.598 93.4871C563.211 105.848 564.958 117.04 567.838 127.065C570.711 136.93 574.546 145.398 579.345 152.468C584.295 159.371 590.037 164.646 596.572 168.294C603.258 171.775 610.563 173.319 618.487 172.925C624.984 172.603 631.656 171.001 638.503 168.12C645.342 165.08 650.688 160.764 654.541 155.171C658.743 150.197 661.49 144.739 662.784 138.797C664.229 132.688 665.25 124.456 665.848 114.1L671.316 113.829C672.039 128.409 672.704 140.211 673.31 149.236C673.909 158.102 674.52 165.618 675.144 171.783L669.676 172.054C668.705 165.271 667.383 161.047 665.712 159.383C664.199 157.71 661.755 158.07 658.378 160.462C652.719 164.873 646.64 168.828 640.142 172.328C633.794 175.661 625.469 177.583 615.169 178.094C599.48 178.873 585.603 176.145 573.538 169.913C561.473 163.68 551.874 154.307 544.74 141.793C537.605 129.279 533.59 113.99 532.694 95.9238C531.814 78.1749 534.371 62.4796 540.366 48.8378C546.52 35.1881 555.276 24.3483 566.633 16.3183C577.991 8.28839 591.355 3.89213 606.727 3.12954Z" fill="white"/>
<path d="M781.868 0.00356969C797.417 0.138444 811.032 3.66801 822.714 10.5923C834.554 17.5179 843.671 27.4347 850.065 40.3426C856.46 53.0919 859.578 68.5895 859.42 86.8355C859.266 104.606 855.799 120.125 849.02 133.395C842.24 146.665 832.868 156.977 820.904 164.33C808.94 171.684 795.342 175.295 780.111 175.163C764.403 175.027 750.709 171.496 739.027 164.572C727.345 157.648 718.308 147.732 711.914 134.824C705.52 121.916 702.402 106.418 702.559 88.331C702.713 70.561 706.18 55.0411 712.959 41.7714C719.897 28.5031 729.269 18.1914 741.075 10.8361C752.88 3.48093 766.478 -0.129928 781.868 0.00356969ZM780.879 4.27915C771.042 4.19382 762.443 7.68937 755.083 14.7658C747.723 21.8422 742.005 31.6303 737.93 44.1301C733.854 56.6299 731.745 71.1302 731.602 87.6309C731.456 104.449 733.55 119.144 737.884 131.717C742.219 144.131 748.165 153.782 755.721 160.671C763.279 167.401 771.739 170.806 781.1 170.887C790.937 170.973 799.456 167.476 806.658 160.399C814.018 153.322 819.736 143.534 823.811 131.034C828.046 118.377 830.235 103.878 830.377 87.5356C830.524 70.5589 828.351 55.8629 823.857 43.4474C819.522 31.0334 813.575 21.4614 806.017 14.7316C798.619 7.8445 790.24 4.36035 780.879 4.27915Z" fill="white"/>
<path d="M1032.84 15.5164L1032.5 20.2643C1029.28 20.83 1025.72 22.7241 1021.84 25.9465C1018.11 29.1801 1014.46 34.5673 1010.9 42.1079L946.961 179.281C946.328 179.236 945.694 179.191 945.061 179.146C944.428 179.101 943.716 179.05 942.925 178.994C942.292 178.948 941.659 178.903 941.026 178.858C940.393 178.813 939.76 178.768 939.126 178.723L890.878 25.4407C888.921 19.4157 886.592 15.2729 883.89 13.0124C881.188 10.7519 878.576 9.4523 876.055 9.11355L876.394 4.3656C880.023 4.78331 884.443 5.25743 889.654 5.78795C895.024 6.32974 900.241 6.78113 905.305 7.14211C911.794 7.60461 917.893 7.95977 923.602 8.20761C929.469 8.46672 934.149 8.64124 937.642 8.73114L937.304 13.4791C932.07 13.2651 927.989 13.6105 925.061 14.5153C922.134 15.4201 920.41 17.2856 919.89 20.1118C919.54 22.7911 920.202 26.8945 921.876 32.4222L957.622 150.216L953.01 154.659L998.677 56.2687C1003.01 46.874 1005.36 39.4861 1005.74 34.1051C1006.14 28.5658 1004.68 24.4851 1001.37 21.863C998.055 19.2408 993.081 17.6137 986.445 16.9817L986.784 12.2337C991.679 12.7417 996.494 13.244 1001.23 13.7407C1005.97 14.2374 1010.47 14.638 1014.75 14.9426C1018.7 15.2246 1022.11 15.388 1024.97 15.4328C1027.83 15.4775 1030.45 15.5054 1032.84 15.5164Z" fill="white"/>
<path d="M1171.47 34.35C1170.02 40.2367 1168.75 45.9878 1167.66 51.6033C1166.74 57.0832 1166.08 61.3165 1165.67 64.303C1165.26 67.2896 1164.95 70.1298 1164.74 72.8236C1164.53 75.5174 1164.38 77.7396 1164.3 79.4903L1158.88 78.7445C1159.16 68.5332 1158.53 60.3575 1156.97 54.2173C1155.57 48.0987 1152.75 43.5471 1148.51 40.5625C1144.46 37.4422 1138.42 35.3309 1130.41 34.2284L1114.14 31.9912C1109.11 31.2995 1105.19 31.2414 1102.39 31.8171C1099.77 32.2572 1097.8 33.7485 1096.49 36.291C1095.2 38.6762 1094.18 42.6197 1093.42 48.1212L1077.08 166.955C1076.34 172.299 1076.26 176.372 1076.84 179.174C1077.42 181.976 1078.9 184.022 1081.28 185.311C1083.85 186.464 1087.64 187.387 1092.67 188.078L1108 190.186C1116.96 191.418 1124.23 190.976 1129.8 188.86C1135.54 186.765 1140.18 182.68 1143.74 176.602C1147.46 170.547 1150.79 162.036 1153.74 151.07L1159.16 151.816C1158.06 156.31 1157.01 162.25 1155.99 169.638C1155.56 172.782 1155.01 177.351 1154.34 183.346C1153.84 189.362 1153.47 195.557 1153.23 201.931C1145.26 200.515 1136.24 199.115 1126.18 197.731C1116.14 196.19 1107.19 194.88 1099.33 193.799C1095.72 193.302 1091.08 192.664 1085.42 191.886C1079.76 191.108 1073.62 190.343 1067 189.593C1060.55 188.706 1053.94 187.877 1047.16 187.105C1040.56 186.197 1034.18 185.4 1028.03 184.714L1028.68 179.999C1034.07 180.419 1038.16 180.342 1040.96 179.766C1043.77 179.19 1045.75 177.542 1046.93 174.821C1048.26 172.121 1049.32 167.942 1050.09 162.283L1066.18 45.3356C1066.98 39.5196 1067.09 35.2107 1066.51 32.4089C1066.12 29.4714 1064.57 27.3366 1061.87 26.0044C1059.35 24.5366 1055.5 23.3674 1050.34 22.4969L1050.99 17.7813C1057.1 18.7815 1063.44 19.8141 1070.02 20.8792C1076.78 21.8087 1083.37 22.7952 1089.79 23.8386C1096.4 24.7465 1102.53 25.5895 1108.18 26.3677C1113.84 27.1459 1118.48 27.7835 1122.1 28.2807C1129.33 29.2751 1137.5 30.3991 1146.62 31.6528C1155.91 32.771 1164.2 33.6701 1171.47 34.35ZM1121.24 109.605C1121.24 109.605 1121.13 110.391 1120.92 111.963C1120.7 113.534 1120.59 114.32 1120.59 114.32L1077.92 108.452C1077.92 108.452 1078.03 107.666 1078.24 106.094C1078.46 104.522 1078.57 103.736 1078.57 103.736L1121.24 109.605ZM1132.36 79.4219C1130.5 88.2951 1129.24 95.0896 1128.6 99.8052C1128.1 104.542 1127.59 108.876 1127.05 112.806C1126.51 116.735 1125.99 121.069 1125.5 125.806C1125.01 130.543 1124.46 137.435 1123.86 146.481L1118.44 145.735C1118.36 140.44 1118.02 135.348 1117.41 130.46C1116.83 125.414 1115.09 121.171 1112.2 117.73C1109.46 114.311 1104.72 112.137 1097.96 111.208L1098.61 106.492C1103.64 107.184 1107.71 106.702 1110.82 105.048C1114.09 103.415 1116.73 101.057 1118.76 97.9718C1120.78 94.887 1122.35 91.6588 1123.45 88.2871C1124.74 84.7799 1125.9 81.5763 1126.94 78.6762L1132.36 79.4219Z" fill="white"/>
<path d="M1209.23 40.7821C1212.76 41.7133 1217.3 42.8637 1222.85 44.2335C1228.55 45.6371 1234.2 46.9463 1239.78 48.161C1247.22 49.7807 1254.29 51.2385 1260.99 52.5345C1267.85 53.8642 1272.67 54.8327 1275.46 55.4401C1288.64 58.3083 1299.2 62.3926 1307.14 67.6931C1315.23 73.0273 1320.7 79.2506 1323.53 86.3632C1326.56 93.3545 1327.21 100.804 1325.49 108.71C1324.44 113.517 1322.32 118.413 1319.13 123.401C1316.12 128.267 1311.7 132.503 1305.89 136.108C1300.1 139.558 1292.78 141.862 1283.92 143.019C1275.06 144.176 1264.28 143.372 1251.57 140.605L1229.24 135.746L1230.25 131.094L1250.25 135.447C1260.64 137.708 1268.92 137.724 1275.09 135.494C1281.44 133.143 1286.18 129.302 1289.29 123.97C1292.58 118.517 1295.01 112.225 1296.56 105.093C1299.23 92.8455 1298.65 82.8146 1294.83 75.0008C1291.04 67.0318 1282.64 61.6302 1269.61 58.7957C1262.95 57.3447 1258.24 57.7009 1255.5 59.8641C1252.91 62.061 1250.74 67.1905 1248.98 75.2524L1223.88 190.6C1222.66 196.181 1222.22 200.469 1222.54 203.462C1222.86 206.455 1224.24 208.703 1226.67 210.207C1229.11 211.711 1232.85 213.175 1237.9 214.598L1236.88 219.249C1233.23 218.13 1228.54 216.945 1222.8 215.697C1217.25 214.327 1211.53 213.001 1205.64 211.719C1199.13 210.301 1192.99 209.046 1187.22 207.953C1181.64 206.738 1177.03 205.898 1173.4 205.431L1174.41 200.78C1179.75 201.618 1183.84 201.858 1186.67 201.501C1189.51 201.145 1191.62 199.655 1193.01 197.033C1194.54 194.445 1195.92 190.361 1197.13 184.779L1222.24 69.4316C1223.49 63.6953 1223.93 59.408 1223.58 56.5699C1223.41 53.6106 1222.03 51.3621 1219.44 49.8245C1217.04 48.1656 1213.3 46.7018 1208.22 45.4332L1209.23 40.7821ZM1230.57 131.893C1238.41 133.924 1244.68 135.695 1249.38 137.207C1254.12 138.563 1258.08 139.75 1261.27 140.769C1264.46 141.788 1267.4 142.833 1270.09 143.906C1281.38 147.987 1289.15 152.926 1293.41 158.725C1297.83 164.557 1300 172.499 1299.92 182.55L1300.57 207.536C1300.51 214.506 1300.96 219.555 1301.9 222.683C1303 225.845 1305.18 227.78 1308.43 228.489C1310.95 228.874 1313.11 228.615 1314.93 227.712C1316.94 226.688 1319.13 225.215 1321.5 223.295L1324.2 226.561C1319.58 230.591 1315.07 233.425 1310.66 235.062C1306.27 236.544 1300.83 236.576 1294.31 235.159C1287.65 233.708 1282.28 230.754 1278.22 226.297C1274.34 221.719 1272.46 214.327 1272.57 204.121L1272.98 179.853C1273.04 172.883 1272.74 166.809 1272.08 161.632C1271.45 156.299 1269.89 151.9 1267.4 148.435C1265.06 145.003 1261.02 142.663 1255.29 141.414L1230.17 135.948L1230.57 131.893Z" fill="white"/>
<path d="M1440 864.31L0 864.309L5.24537e-05 264.309C471.399 135.802 968.601 135.802 1440 264.31V864.31Z" fill="white"/>
</svg>
