<svg width="1440" height="300" viewBox="0 0 1440 300" fill="none" xmlns="http://www.w3.org/2000/svg">
<path d="M1360 0C1404.18 2.06165e-05 1440 35.8172 1440 80V300H0V80C0 35.8172 35.8172 3.22133e-07 80 0H1360ZM839.838 59.1143C833.08 49.1402 816.234 46.1557 805.446 56.2588C805.384 56.299 805.321 56.3378 805.26 56.3789C801.954 59.6167 799.495 63.6171 798.098 68.0283C798.05 67.9764 789.431 58.5385 775.694 63.7178C766.766 67.084 763.974 74.5429 763.113 79.375C761.963 79.8082 760.833 80.3002 759.729 80.8525C753.186 84.1664 747.693 89.2348 743.863 95.4902C742.898 97.0592 742.023 98.6819 741.243 100.351C734.977 103.005 727.149 109.856 725.561 116.359C725.031 118.447 724.918 120.619 725.228 122.751C725.537 124.883 726.264 126.932 727.366 128.783C727.312 129.156 727.257 129.53 727.21 129.876C727.128 130.453 727.047 131.037 726.973 131.614C726.898 132.191 726.796 132.728 726.694 133.271C726.593 133.814 726.469 134.37 726.3 134.913C726.212 135.185 726.144 135.47 726.062 135.755C725.981 136.04 725.859 136.305 725.757 136.576C725.553 137.126 725.289 137.649 725.078 138.179C724.868 138.708 724.617 139.163 724.399 139.584C724.195 139.999 723.968 140.402 723.721 140.793C723.517 141.126 723.381 141.472 723.279 141.628C723.18 141.78 723.12 141.924 723.116 141.933L722.893 142.381C722.819 142.523 722.775 142.68 722.765 142.84C722.754 143 722.776 143.161 722.831 143.312C722.885 143.46 722.967 143.596 723.074 143.712C723.181 143.828 723.31 143.922 723.453 143.987C723.597 144.053 723.752 144.09 723.91 144.095C724.068 144.1 724.225 144.074 724.372 144.018L725.425 143.65C725.842 143.518 726.252 143.364 726.653 143.189C727.135 142.965 727.719 142.727 728.31 142.415C728.9 142.103 729.545 141.777 730.184 141.322L731.182 140.644C731.514 140.392 731.861 140.106 732.18 139.828C732.528 139.543 732.859 139.237 733.171 138.912C733.511 138.591 733.833 138.251 734.135 137.894C734.433 137.534 734.746 137.167 735.038 136.787L735.866 135.612C736.165 135.151 736.45 134.675 736.729 134.207C741.549 132.733 746.28 124.349 748.127 116.848C749.485 111.22 750.958 106.203 750.374 102.944C750.822 102.198 751.291 101.451 751.807 100.711C754.896 96.2054 759.172 92.6431 764.162 90.4189C769.796 87.9375 776.163 87.6939 781.97 89.7393C784.931 90.8499 787.594 92.6324 789.75 94.9463C791.923 97.3891 793.455 100.334 794.21 103.515C794.993 107.038 795.104 110.677 794.536 114.241C793.904 118.176 792.777 122.015 791.183 125.667C789.515 129.574 787.518 133.333 785.215 136.902C784.645 137.819 784.047 138.729 783.416 139.618C782.785 140.508 782.194 141.431 781.528 142.334L780.558 143.691L780.313 144.024L780.191 144.193L780.13 144.275L779.044 145.633C778.861 145.87 778.684 146.088 778.534 146.258L777.584 147.357C774.645 150.579 771.503 153.609 768.175 156.428L757.692 165.361C754.049 168.47 750.604 171.807 747.38 175.349C744.03 179.028 741.206 183.154 738.989 187.609C736.803 192.114 735.51 196.999 735.181 201.995C735.093 203.197 735.065 204.402 735.099 205.606V206.646L735.16 207.419L735.282 208.96C735.418 210.121 735.581 211.418 735.798 212.565C736.015 213.713 736.246 214.826 736.605 215.926C737.803 220.224 739.765 224.271 742.396 227.874C744.784 231.156 747.652 234.06 750.903 236.489C753.81 238.661 756.961 240.484 760.293 241.921C763.216 243.205 766.247 244.232 769.349 244.989L770.109 245.159L770.204 245.193C772.159 245.838 774.183 246.551 776.314 247.087C780.768 248.256 785.309 249.064 789.893 249.504C792.268 249.701 794.692 249.918 797.143 249.932C798.365 249.932 799.6 250.027 800.836 249.993L804.563 249.884C809.599 249.656 814.615 249.107 819.58 248.241C822.085 247.854 824.544 247.257 827.049 246.748C828.278 246.463 829.486 246.123 830.701 245.804C831.916 245.485 833.118 245.125 834.306 244.772L837.856 243.665C839.017 243.265 840.171 242.823 841.318 242.409C843.62 241.608 845.827 240.618 848.013 239.694C852.17 237.837 856.199 235.702 860.07 233.306C860.987 232.722 861.903 232.172 862.785 231.588L865.338 229.789C867.028 228.642 868.542 227.344 870.022 226.163C870.769 225.586 871.448 224.941 872.12 224.33L874.068 222.524C875.311 221.33 876.411 220.101 877.463 218.987C879.222 217 880.838 214.891 882.297 212.674C883.254 211.29 884.11 209.838 884.856 208.329L885.311 207.453C896.998 201.71 906.444 192.915 912.846 182.259C917.985 184.01 924.02 180.277 926.811 173.604C926.858 173.549 926.858 173.495 926.858 173.44C931.597 160.664 930.538 139.972 929.296 140.175C928.957 140.473 929.098 160.787 923.417 172.422L921.305 171.79C925.901 160.33 925.507 141.227 924.299 141.403C923.966 141.737 923.415 160.462 917.856 170.752L915.772 170.134C920.219 160.006 920.497 142.494 919.323 142.625C918.923 142.978 917.775 160.126 912.344 169.102L910.246 168.478C914.537 159.679 915.467 143.745 914.319 143.847C913.885 144.24 912.051 159.801 906.783 167.445V167.486C906.766 167.509 906.753 167.534 906.743 167.561C905.066 171.844 905.561 176.57 909.451 180.283C897.348 197.071 877.67 206.31 856.253 204.853C854.916 204.356 853.537 203.843 852.113 203.332C851.93 203.257 851.74 203.197 851.55 203.129L852.785 202.612C854.299 201.974 855.989 201.255 857.829 200.372C858.734 199.947 859.687 199.483 860.688 198.98C861.665 198.465 862.725 197.929 863.723 197.352L865.236 196.482C865.766 196.163 866.303 195.803 866.846 195.491C867.898 194.812 868.977 194.133 870.036 193.346C872.25 191.759 874.34 190.007 876.289 188.104C878.326 186.112 880.182 183.942 881.835 181.621C883.497 179.288 884.96 176.82 886.207 174.241L886.621 173.353L886.825 172.911C886.954 172.64 886.988 172.558 887.069 172.368C887.334 171.723 887.62 171.084 887.871 170.439C888.339 169.136 888.78 167.853 889.153 166.577C889.873 164.018 890.362 161.566 890.77 159.312C891.177 157.059 891.516 154.995 891.91 153.114C892.121 152.191 892.29 151.274 892.541 150.439C892.792 149.604 892.983 148.79 893.221 148.036C893.682 146.529 894.137 145.192 894.578 144.119L894.714 143.772C894.931 143.352 895.128 142.938 895.291 142.544C895.789 141.467 896.209 140.355 896.547 139.218C896.805 138.444 896.913 138.029 896.913 138.029L895.956 138.837C895.352 139.366 894.497 140.155 893.329 141.044C892.161 141.933 890.783 142.999 889.181 144.133C888.332 144.656 887.497 145.26 886.561 145.823C885.624 146.387 884.666 147.005 883.601 147.555C882.535 148.105 881.503 148.749 880.328 149.292L878.59 150.175L876.764 151.037C874.781 151.974 872.691 152.904 870.478 153.834C871.727 152.924 872.975 151.946 874.204 150.86C876.31 148.994 878.253 146.949 880.009 144.75C881.811 142.459 883.402 140.01 884.762 137.432C885.094 136.753 885.441 136.142 885.753 135.463L886.662 133.427L887.402 131.539C887.694 130.731 887.905 130.106 888.122 129.373C888.928 126.681 889.494 123.923 889.812 121.132C890.118 118.491 890.274 116.013 890.41 113.664C890.546 111.315 890.688 109.21 890.885 107.241C891.082 105.273 891.347 103.487 891.652 101.898C891.958 100.31 892.284 98.9179 892.623 97.7842C892.962 96.6506 893.227 95.7477 893.451 95.1436C893.673 94.5448 893.769 94.1995 893.771 94.1934L892.345 95.6797C891 97.0254 889.566 98.2803 888.054 99.4346C885.749 101.187 883.317 102.764 880.776 104.152C877.484 105.932 874.095 107.53 870.627 108.938C862.989 112.163 853.681 115.178 843.641 119.251C838.363 121.372 833.237 123.852 828.298 126.672C822.914 129.742 818.006 133.579 813.729 138.063C811.518 140.416 809.563 142.997 807.896 145.762C807.048 147.156 806.284 148.601 805.608 150.087L805.086 151.247L804.699 152.226L804.265 153.339L803.885 154.37C802.894 157.086 802.018 159.706 801.169 162.272C800.32 164.839 799.418 167.317 798.542 169.74C797.666 172.164 796.736 174.493 795.771 176.747C794.807 179.001 793.817 181.16 792.751 183.203C790.822 187.035 788.462 190.633 785.717 193.93C783.419 196.685 780.691 199.05 777.639 200.936C775.208 202.399 772.571 203.49 769.817 204.174C767.984 204.644 766.112 204.949 764.224 205.084C762.866 205.193 762.187 205.206 762.187 205.206L762.696 205.342C763.036 205.423 763.524 205.586 764.189 205.708C766.129 206.12 768.106 206.337 770.089 206.354C773.264 206.369 776.419 205.841 779.417 204.792C783.372 203.379 787.036 201.257 790.231 198.532C793.96 195.346 797.248 191.678 800.008 187.623C801.467 185.505 802.866 183.264 804.196 180.949C805.527 178.634 806.743 176.197 807.938 173.726C810.293 168.79 812.425 163.543 814.509 158.573L814.91 157.656L815.005 157.433L815.053 157.323V157.316L815.283 156.842L815.738 155.897L816.132 155.165C816.661 154.194 817.299 153.128 817.958 152.109C819.322 150.092 820.862 148.199 822.561 146.454C824.31 144.656 826.194 142.992 828.195 141.479C830.23 139.894 832.357 138.429 834.563 137.093C836.763 135.735 839.044 134.377 841.353 133.162C843.661 131.947 845.983 130.69 848.318 129.536C857.633 124.865 866.771 120.487 874.116 115.646C877.515 113.469 880.726 111.012 883.716 108.301C884.985 107.12 886.106 105.958 887.11 104.845C886.927 105.313 886.744 105.809 886.567 106.312C885.888 108.314 885.209 110.528 884.666 112.829C884.123 115.13 883.58 117.534 882.962 119.903C882.396 122.275 881.673 124.607 880.797 126.882C880.586 127.425 880.321 128.057 880.117 128.491L879.275 130.338L878.447 131.939L877.559 133.59C876.333 135.766 874.972 137.863 873.484 139.869C872.058 141.841 870.516 143.727 868.868 145.518C865.843 148.781 862.617 151.851 859.208 154.71L854.972 158.274C853.695 159.354 852.582 160.311 851.686 161.173C851.367 161.458 851.088 161.729 850.83 161.987C847.83 163.345 844.802 164.703 841.869 166.224C840.362 166.998 838.882 167.772 837.436 168.627C835.99 169.482 834.557 170.304 833.179 171.207C830.517 172.924 827.978 174.825 825.582 176.896C823.384 178.765 821.34 180.808 819.472 183.006C818.637 184.065 817.843 185.077 817.137 186.068C816.431 187.059 815.833 188.064 815.29 189.001C814.747 189.938 814.305 190.861 813.932 191.717C813.558 192.572 813.253 193.394 812.947 194.113C812.667 194.736 812.44 195.38 812.269 196.041C812.119 196.611 811.991 197.087 811.896 197.48C811.694 198.261 811.605 198.688 811.604 198.695C811.609 198.69 811.935 198.398 812.5 197.833C813.07 197.263 813.858 196.36 814.991 195.416C815.548 194.941 816.091 194.392 816.756 193.842C817.421 193.292 818.114 192.694 818.895 192.069L821.387 190.202L824.225 188.295C826.261 187.039 828.406 185.715 830.823 184.479C833.24 183.244 835.766 181.981 838.481 180.725L842.649 178.879L846.98 177.005L855.983 173.169C859.018 171.811 862.093 170.454 865.073 168.974C866.58 168.245 868.061 167.484 869.514 166.692C870.966 165.898 872.412 165.124 873.797 164.255C875.182 163.386 876.56 162.551 877.87 161.676C879.18 160.8 880.451 159.903 881.632 158.926C882.99 157.887 884.239 156.808 885.413 155.715C885.162 156.346 884.904 156.991 884.659 157.643C883.838 159.801 883.044 162.008 882.134 164.167C881.224 166.387 880.186 168.551 879.024 170.65C877.854 172.803 876.567 174.891 875.169 176.903C873.765 178.916 872.241 180.843 870.606 182.674C868.997 184.514 867.28 186.231 865.556 187.874C864.666 188.682 863.797 189.483 862.948 190.264L861.679 191.384C861.231 191.764 860.79 192.144 860.321 192.511L857.843 194.608C857.015 195.292 856.216 195.946 855.446 196.57C853.892 197.826 852.473 199.014 851.224 200.087C850.328 200.84 849.547 201.56 848.848 202.205C848.257 202.015 847.673 201.818 847.062 201.628C845.338 201.051 843.505 200.542 841.631 200.094C837.752 199.1 833.778 198.524 829.777 198.376C827.712 198.299 825.644 198.351 823.586 198.532C822.554 198.654 821.549 198.79 820.504 198.946C819.458 199.102 818.467 199.361 817.482 199.564C815.51 200.019 813.569 200.602 811.672 201.31L808.956 202.483C808.065 202.849 807.2 203.278 806.369 203.767C804.723 204.622 803.136 205.586 801.617 206.652L799.444 208.187C798.766 208.696 798.086 209.272 797.448 209.822C795.045 211.84 792.799 214.037 790.728 216.395C789.024 218.374 787.438 220.45 785.976 222.613C784.831 224.239 783.781 225.93 782.832 227.678C782.045 229.117 781.474 230.298 781.08 231.072C780.686 231.846 780.489 232.301 780.489 232.301C780.489 232.301 780.897 232.049 781.63 231.547C782.363 231.045 783.443 230.332 784.753 229.354C786.063 228.377 787.707 227.283 789.506 226.027C791.305 224.771 793.389 223.441 795.582 221.954C796.695 221.228 797.89 220.596 799.092 219.829C800.293 219.062 801.563 218.417 802.859 217.738C803.538 217.412 804.149 217.018 804.821 216.706L806.858 215.776C808.216 215.098 809.635 214.595 811.061 214.045C811.42 213.916 811.739 213.753 812.14 213.645C812.54 213.536 812.873 213.434 813.239 213.318L815.439 212.64L817.693 212.145C818.073 212.07 818.44 211.941 818.827 211.88L819.968 211.703C823.064 211.188 826.207 211.004 829.343 211.153C832.61 211.277 835.863 211.638 839.078 212.232C839.893 212.348 840.728 212.552 841.55 212.708C842.371 212.864 843.206 213.013 844.041 213.189L849.031 214.249C852.358 214.969 855.732 215.607 859.052 216.048C860.701 216.258 862.372 216.387 863.98 216.469C865.566 216.507 867.153 216.453 868.732 216.306C870.205 216.161 871.665 215.916 873.104 215.572L875.087 214.935L876.018 214.615L876.886 214.201L878.509 213.407C878.994 213.134 879.464 212.832 879.914 212.504L880.416 212.165C878.997 213.523 877.218 214.975 875.202 216.611C874.007 217.46 872.813 218.452 871.448 219.368C870.084 220.285 868.732 221.289 867.137 222.192C865.542 223.095 864.035 224.127 862.297 224.989L859.71 226.388C858.827 226.836 857.904 227.263 856.994 227.711C853.321 229.524 849.302 231.14 845.141 232.722C840.979 234.303 836.552 235.662 832.011 236.843C829.764 237.522 827.442 237.943 825.141 238.52C822.819 238.974 820.504 239.517 818.148 239.877C813.471 240.753 808.738 241.235 804.088 241.636C799.438 242.036 794.828 242.083 790.388 241.968C786.13 241.845 781.883 241.46 777.672 240.814C775.635 240.584 773.775 240.094 771.901 239.734C771.65 239.639 771.393 239.551 771.135 239.442C765.595 237.348 760.5 234.227 756.117 230.243C753.763 228.048 751.727 225.534 750.068 222.775C748.373 219.903 747.173 216.766 746.518 213.495C746.3 212.667 746.253 211.791 746.104 210.942C745.954 210.094 745.982 209.354 745.907 208.472V205.647C745.934 204.764 746.008 203.882 746.131 203.007C746.353 201.252 746.733 199.52 747.265 197.833C747.834 196.116 748.545 194.45 749.39 192.851C752.879 186.326 758.976 180.514 765.799 174.812C772.622 169.109 780.327 163.468 787.231 155.878L788.589 154.35C788.833 154.078 789.017 153.848 789.193 153.631L789.743 152.951L790.286 152.272L790.925 151.424L792.018 149.958C792.764 148.98 793.471 147.975 794.163 146.957C794.855 145.939 795.52 144.92 796.199 143.868C798.891 139.679 801.222 135.268 803.165 130.684C804.234 128.187 805.121 125.62 805.822 123.003C844.83 104.178 850.916 75.4849 839.838 59.1143ZM636.238 56.3506C625.448 46.1373 608.519 49.1098 601.741 59.1143C590.504 75.6816 596.872 104.868 637.176 123.676C637.837 125.994 638.643 128.272 639.594 130.493C641.541 135.078 643.871 139.491 646.559 143.685C647.237 144.737 647.91 145.762 648.596 146.773C649.281 147.785 649.988 148.797 650.734 149.768L651.827 151.24L652.465 152.082L653.008 152.762L653.559 153.44C653.735 153.658 653.925 153.896 654.162 154.16L655.521 155.694C662.425 163.284 670.144 168.926 676.96 174.629C683.776 180.332 689.872 186.143 693.361 192.667C694.209 194.263 694.92 195.927 695.486 197.643C696.02 199.332 696.402 201.066 696.627 202.823C696.769 203.685 696.79 204.575 696.852 205.457V208.288C696.777 209.164 696.804 209.898 696.654 210.753C696.505 211.608 696.457 212.483 696.24 213.305C695.588 216.578 694.388 219.719 692.689 222.593C691.029 225.34 688.993 227.842 686.641 230.026C682.26 234.014 677.165 237.138 671.624 239.232L670.856 239.524C668.983 239.877 667.123 240.366 665.086 240.604C660.875 241.249 656.628 241.635 652.37 241.758C647.93 241.866 643.32 241.819 638.67 241.418C634.02 241.017 629.288 240.536 624.61 239.66C622.261 239.307 619.939 238.757 617.617 238.302C615.323 237.732 612.994 237.277 610.747 236.632C606.205 235.451 601.833 233.998 597.617 232.511C593.456 230.888 589.437 229.314 585.771 227.494C584.861 227.012 583.937 226.592 583.055 226.137L580.468 224.737C578.73 223.875 577.203 222.836 575.635 221.94C574.067 221.044 572.681 220.04 571.316 219.123C569.952 218.207 568.764 217.216 567.562 216.36C565.553 214.731 563.768 213.271 562.355 211.913L562.851 212.26C563.287 212.589 563.741 212.894 564.209 213.176L565.872 213.971L566.741 214.385L567.671 214.697L569.653 215.376C571.093 215.715 572.554 215.96 574.025 216.109C575.605 216.257 577.192 216.309 578.777 216.265C580.386 216.19 582.057 216.061 583.707 215.844C587.027 215.409 590.401 214.771 593.728 214.052L598.717 212.993C599.559 212.81 600.388 212.674 601.209 212.511C602.03 212.348 602.865 212.151 603.68 212.029C606.897 211.437 610.153 211.076 613.422 210.949C616.556 210.806 619.696 210.992 622.791 211.506L623.938 211.683C624.318 211.744 624.684 211.873 625.064 211.947L627.318 212.443L629.519 213.122L630.618 213.447C630.985 213.549 631.338 213.713 631.697 213.849C633.123 214.392 634.549 214.9 635.907 215.579L637.943 216.503C638.615 216.822 639.227 217.215 639.905 217.541C641.202 218.22 642.472 218.872 643.674 219.633C644.875 220.393 646.07 221.031 647.184 221.751C649.376 223.244 651.461 224.562 653.26 225.824C655.059 227.087 656.702 228.186 658.012 229.157C659.322 230.128 660.402 230.848 661.135 231.351C661.868 231.853 662.275 232.104 662.275 232.104C662.272 232.095 662.075 231.641 661.685 230.868C661.291 230.087 660.727 228.906 659.933 227.474C658.987 225.722 657.938 224.028 656.79 222.402C655.328 220.241 653.74 218.167 652.037 216.19C649.968 213.829 647.721 211.63 645.316 209.612C644.678 209.069 643.999 208.492 643.32 207.982L641.142 206.448C639.625 205.378 638.036 204.412 636.389 203.557C635.556 203.072 634.692 202.644 633.803 202.273L631.087 201.105C629.192 200.399 627.253 199.816 625.282 199.36C624.291 199.157 623.299 198.886 622.254 198.736C621.208 198.587 620.204 198.451 619.172 198.329C617.113 198.149 615.046 198.095 612.98 198.166C608.979 198.316 605.005 198.895 601.127 199.891C599.253 200.339 597.421 200.848 595.696 201.418C595.085 201.608 594.501 201.805 593.91 202.002C593.218 201.357 592.43 200.637 591.534 199.884C590.285 198.804 588.866 197.623 587.312 196.367L584.915 194.404L582.41 192.32L581.052 191.193L579.782 190.073C578.934 189.293 578.065 188.491 577.176 187.684C575.451 186.041 573.734 184.316 572.125 182.483C570.489 180.652 568.965 178.722 567.562 176.706C566.164 174.696 564.877 172.611 563.706 170.46C562.547 168.36 561.509 166.195 560.597 163.977C559.687 161.811 558.893 159.611 558.078 157.445C557.827 156.794 557.569 156.156 557.318 155.524C558.493 156.611 559.742 157.697 561.1 158.735C562.281 159.679 563.557 160.569 564.867 161.451C566.177 162.334 567.555 163.162 568.94 164.031C570.325 164.9 571.772 165.673 573.225 166.468C574.677 167.269 576.157 168.032 577.664 168.756C580.644 170.236 583.727 171.594 586.755 172.952L595.757 176.787L600.088 178.654L604.257 180.508C606.952 181.764 609.505 183.019 611.922 184.255C614.339 185.49 616.484 186.821 618.521 188.07L621.324 189.985L623.815 191.853C624.603 192.477 625.302 193.061 625.961 193.617C626.619 194.174 627.163 194.724 627.72 195.199C628.819 196.143 629.641 197.032 630.211 197.609C630.781 198.186 631.107 198.479 631.107 198.479C631.107 198.479 631.019 198.05 630.815 197.263C630.72 196.869 630.591 196.387 630.441 195.816C630.281 195.159 630.065 194.517 629.797 193.896C629.525 193.176 629.186 192.354 628.812 191.499C628.439 190.644 627.998 189.727 627.455 188.783C626.912 187.84 626.314 186.842 625.608 185.851C624.902 184.859 624.107 183.848 623.272 182.782C621.401 180.587 619.357 178.544 617.162 176.672C614.753 174.601 612.204 172.7 609.532 170.982C608.154 170.08 606.721 169.272 605.275 168.41C603.829 167.548 602.349 166.781 600.842 166C597.909 164.486 594.881 163.128 591.881 161.771C591.623 161.506 591.344 161.241 591.025 160.949C590.129 160.094 589.002 159.116 587.739 158.057C586.477 156.998 585.058 155.796 583.51 154.485C580.097 151.631 576.867 148.563 573.842 145.3C572.197 143.506 570.656 141.621 569.226 139.652C567.74 137.645 566.38 135.547 565.152 133.372L564.263 131.723L563.435 130.113L562.593 128.273C562.389 127.832 562.124 127.201 561.914 126.665C561.038 124.387 560.315 122.053 559.748 119.679C559.13 117.309 558.587 114.92 558.044 112.611C557.501 110.303 556.856 108.124 556.144 106.087C555.967 105.585 555.784 105.096 555.601 104.621C556.605 105.734 557.732 106.902 558.995 108.076C561.987 110.787 565.198 113.247 568.595 115.429C575.974 120.269 585.119 124.649 594.427 129.312C596.762 130.473 599.084 131.716 601.392 132.938C603.7 134.159 605.981 135.517 608.181 136.875C610.387 138.209 612.514 139.671 614.549 141.254C616.549 142.77 618.432 144.434 620.184 146.23C621.88 147.98 623.42 149.874 624.786 151.893C625.445 152.904 626.084 153.976 626.613 154.94L627.014 155.674L627.461 156.624L627.692 157.1L627.739 157.215L627.835 157.438L628.235 158.355C630.32 163.325 632.451 168.566 634.813 173.509C636.001 175.98 637.217 178.417 638.548 180.731C639.878 183.046 641.277 185.287 642.736 187.405C645.5 191.457 648.787 195.126 652.513 198.315C655.706 201.041 659.371 203.16 663.327 204.567C666.32 205.616 669.47 206.146 672.642 206.136C674.624 206.115 676.601 205.9 678.541 205.491C679.206 205.362 679.696 205.205 680.035 205.124L680.544 204.988C680.528 204.988 679.849 204.973 678.508 204.866C676.62 204.728 674.747 204.424 672.913 203.957C670.16 203.273 667.524 202.181 665.093 200.719C662.034 198.829 659.298 196.458 656.993 193.698C654.258 190.4 651.908 186.801 649.987 182.972C648.922 180.935 647.943 178.776 646.973 176.522C646.002 174.269 645.086 171.94 644.203 169.517C643.321 167.093 642.424 164.608 641.575 162.049C640.727 159.489 639.852 156.869 638.86 154.153L638.479 153.121L638.045 152.008L637.658 151.03L637.143 149.862C636.464 148.379 635.697 146.938 634.848 145.545C633.183 142.78 631.231 140.199 629.022 137.846C624.742 133.363 619.832 129.525 614.447 126.454C609.499 123.65 604.363 121.188 599.077 119.088C589.03 115.001 579.722 112 572.098 108.816C568.628 107.409 565.24 105.809 561.948 104.023C559.407 102.639 556.973 101.064 554.67 99.3115C553.156 98.1595 551.725 96.9028 550.387 95.5508L548.954 94.0713L549.273 95.0146C549.497 95.6256 549.762 96.5624 550.102 97.6621C550.441 98.7619 550.767 100.147 551.072 101.735C551.378 103.324 551.642 105.11 551.839 107.078C552.036 109.047 552.179 111.166 552.314 113.508C552.45 115.85 552.607 118.335 552.912 120.976C553.232 123.767 553.797 126.525 554.603 129.217C554.82 129.943 555.03 130.568 555.322 131.376L556.062 133.271L556.972 135.307C557.284 135.979 557.63 136.597 557.963 137.275C560.641 142.35 564.224 146.894 568.533 150.684C569.762 151.77 571.012 152.748 572.261 153.657C570.048 152.72 567.956 151.797 565.974 150.854L564.147 149.998L562.409 149.115C561.235 148.572 560.203 147.928 559.138 147.378C558.072 146.828 557.115 146.217 556.178 145.646C555.241 145.076 554.405 144.472 553.557 143.956C551.955 142.822 550.577 141.763 549.409 140.867C548.242 139.971 547.392 139.191 546.781 138.661L545.824 137.846C545.824 137.846 545.939 138.267 546.19 139.041C546.529 140.178 546.949 141.29 547.446 142.367C547.616 142.761 547.806 143.169 548.023 143.597L548.159 143.936C548.6 145.008 549.056 146.346 549.518 147.853C549.755 148.606 549.952 149.428 550.196 150.263C550.441 151.098 550.611 152.014 550.821 152.938C551.222 154.818 551.547 156.889 551.961 159.136C552.375 161.383 552.858 163.841 553.577 166.4C553.951 167.677 554.392 168.96 554.867 170.264C555.112 170.908 555.396 171.547 555.668 172.191C555.749 172.375 555.777 172.463 555.906 172.728L556.109 173.176L556.523 174.059C557.766 176.63 559.224 179.092 560.882 181.418C562.539 183.736 564.395 185.905 566.429 187.901C568.38 189.801 570.473 191.551 572.688 193.135C573.741 193.929 574.82 194.608 575.872 195.287L577.515 196.285L579.029 197.147C580.027 197.724 581.086 198.267 582.063 198.783C583.064 199.286 584.017 199.75 584.922 200.176C586.762 201.058 588.452 201.778 589.966 202.416L591.201 202.932L590.638 203.129C588.251 203.989 585.989 204.848 583.845 205.635C583.579 205.581 583.33 205.561 583.104 205.579C561.685 207.039 542.004 197.799 529.899 181.01C533.789 177.289 534.285 172.571 532.608 168.287C532.599 168.26 532.585 168.235 532.567 168.213C532.567 168.213 532.567 168.213 532.567 168.172C527.299 160.527 525.466 144.968 525.031 144.574C523.884 144.476 524.815 160.407 529.105 169.204L527.007 169.829C521.576 160.854 520.429 143.705 520.028 143.352C518.854 143.216 519.132 160.731 523.579 170.854L521.494 171.479C515.934 161.186 515.384 142.456 515.052 142.13C513.843 141.955 513.45 161.057 518.046 172.517L515.935 173.148C510.255 161.517 510.395 141.211 510.056 140.901C508.813 140.698 507.754 161.39 512.492 174.167C512.492 174.221 512.526 174.276 512.54 174.33C515.33 181.003 521.366 184.737 526.505 182.985C533.822 195.166 545.118 204.916 559.19 210.454C559.594 211.133 560.019 211.799 560.468 212.45C561.929 214.663 563.545 216.77 565.302 218.757C566.361 219.877 567.454 221.106 568.696 222.301L570.645 224.106C571.317 224.717 571.995 225.356 572.742 225.939C574.222 227.121 575.736 228.41 577.427 229.564L579.979 231.363C580.862 231.94 581.779 232.497 582.695 233.081C586.581 235.476 590.62 237.613 594.786 239.477C596.972 240.4 599.179 241.391 601.48 242.192C602.634 242.606 603.782 243.041 604.942 243.448L608.466 244.568C609.654 244.955 610.856 245.275 612.071 245.594C613.286 245.913 614.495 246.259 615.724 246.537C618.195 247.053 620.652 247.65 623.157 248.037C628.126 248.896 633.144 249.439 638.182 249.66L641.908 249.762C643.144 249.802 644.38 249.707 645.608 249.707C648.052 249.687 650.476 249.476 652.853 249.279C657.436 248.841 661.977 248.031 666.43 246.856C668.561 246.327 670.585 245.614 672.54 244.969L672.635 244.928L673.396 244.765C676.497 244.004 679.527 242.978 682.452 241.696C685.784 240.261 688.936 238.439 691.841 236.266C695.108 233.836 697.992 230.93 700.396 227.644C703.008 224.038 704.953 219.994 706.139 215.702C706.498 214.609 706.729 213.502 706.946 212.348C707.164 211.194 707.327 209.897 707.47 208.736L707.585 207.202L707.646 206.428V205.383C707.679 204.181 707.652 202.977 707.564 201.777C707.234 196.78 705.943 191.893 703.763 187.385C701.539 182.934 698.713 178.811 695.364 175.131C692.142 171.587 688.697 168.252 685.052 165.145L674.557 156.203C671.227 153.389 668.084 150.361 665.146 147.14L664.196 146.033C664.047 145.87 663.871 145.647 663.688 145.409L663.151 144.73L662.601 144.051L662.54 143.963L662.418 143.8L662.173 143.468L661.202 142.109C660.537 141.2 659.96 140.29 659.322 139.394C658.684 138.498 658.094 137.595 657.517 136.679C655.215 133.112 653.219 129.358 651.549 125.456C649.956 121.803 648.83 117.964 648.195 114.03C647.626 110.466 647.739 106.826 648.527 103.304C649.275 100.12 650.809 97.1747 652.988 94.7363C655.138 92.4192 657.8 90.636 660.761 89.5293C666.566 87.4805 672.935 87.7232 678.568 90.208C683.558 92.4297 687.835 95.9895 690.925 100.493C691.441 101.24 691.909 101.987 692.357 102.733C691.774 105.985 693.254 111.01 694.611 116.638C696.451 124.133 701.183 132.517 706.003 133.99C706.281 134.465 706.567 134.941 706.865 135.402L707.693 136.576C707.985 136.956 708.312 137.343 708.597 137.683C708.882 138.022 709.241 138.369 709.561 138.701C709.871 139.026 710.202 139.33 710.552 139.611C710.871 139.896 711.217 140.175 711.55 140.426L712.548 141.104C713.186 141.552 713.824 141.892 714.421 142.197C715.018 142.503 715.596 142.741 716.078 142.965C716.478 143.144 716.889 143.301 717.307 143.434L718.358 143.8C718.506 143.851 718.662 143.873 718.818 143.864C718.974 143.855 719.127 143.815 719.268 143.747C719.408 143.679 719.534 143.584 719.638 143.468C719.742 143.351 719.822 143.214 719.873 143.066C719.928 142.916 719.95 142.756 719.939 142.596C719.929 142.436 719.885 142.279 719.812 142.137L719.588 141.688L719.432 141.383C719.323 141.193 719.173 140.887 718.983 140.548C718.793 140.208 718.522 139.761 718.305 139.34C718.088 138.919 717.836 138.464 717.626 137.935C717.416 137.405 717.15 136.875 716.946 136.332C716.844 136.061 716.723 135.789 716.642 135.504C716.56 135.219 716.492 134.934 716.403 134.669C716.234 134.126 716.112 133.569 716.01 133.025C715.908 132.482 715.806 131.946 715.731 131.369C715.657 130.792 715.576 130.209 715.501 129.632C715.447 129.286 715.392 128.911 715.338 128.538C717.563 124.798 718.213 120.326 717.144 116.107C715.555 109.611 707.727 102.761 701.461 100.106C700.681 98.4376 699.806 96.8142 698.841 95.2451C695.019 89.0033 689.541 83.9439 683.016 80.6289C681.499 79.8718 679.932 79.2263 678.329 78.6943C677.339 73.8675 674.415 66.9296 665.875 63.7178C652.066 58.5245 643.438 68.0283 643.438 68.0283C642.043 63.6176 639.586 59.6173 636.282 56.3789C636.268 56.3692 636.253 56.3602 636.238 56.3506ZM612.629 83.626C609.821 72.7653 616.501 64.0434 627.613 66.8809C639.657 69.9564 642.549 83.7383 642.549 83.7383C642.562 83.7062 648.267 70.1478 661.558 70.9072C668.336 71.2945 672.684 74.6467 675.321 77.8408C673.833 77.4883 672.321 77.2301 670.795 77.0713C666.139 76.6008 661.437 77.0932 656.979 78.5176C652.124 80.0874 647.726 82.821 644.169 86.4805C640.473 90.3323 637.803 95.0501 636.402 100.201C635.077 105.296 634.777 110.604 635.52 115.815C635.726 117.312 635.993 118.798 636.316 120.271C631.746 115.414 627.57 110.195 623.833 104.661C619.764 99.1917 616.383 93.2433 613.765 86.9492C613.311 85.8831 612.936 84.7845 612.645 83.6631C612.639 83.6508 612.634 83.6383 612.629 83.626ZM823.528 55.8193C823.899 56.0345 824.262 56.2644 824.617 56.5078C831.773 61.389 833.715 72.5768 828.942 83.6631C828.651 84.7855 828.274 85.8844 827.815 86.9492C825.198 93.2433 821.816 99.1917 817.747 104.661C814.44 109.563 810.786 114.216 806.819 118.59C806.978 117.73 807.119 116.866 807.238 115.999C807.984 110.787 807.684 105.479 806.355 100.385C804.935 95.23 802.247 90.5127 798.535 86.6641C794.975 83.0399 790.588 80.3351 785.751 78.7822C781.301 77.3471 776.604 76.8392 771.949 77.2891C769.836 77.5083 767.752 77.916 765.72 78.5059C768.292 75.1283 772.765 71.3217 780.005 70.9072C793.291 70.1469 799.015 83.7383 799.015 83.7383C799.015 83.7383 801.907 69.9563 813.95 66.8809C825.064 64.0433 831.751 72.7677 828.94 83.6299C833.679 72.5571 831.737 61.3686 824.581 56.4873C824.226 56.2441 823.863 56.0148 823.493 55.7998L823.528 55.8193Z" fill="white"/>
</svg>
